<svg xmlns="http://www.w3.org/2000/svg" xmlns:xlink="http://www.w3.org/1999/xlink" width="1228pt" height="290pt" viewBox="0.00 0.00 1228.07 290.09">
<g id="graph0" class="graph" transform="scale(1 1) rotate(0) translate(4 286.09)">
<title>Library_ERD</title>
<polygon fill="white" stroke="none" points="-4,4 -4,-286.09 1224.07,-286.09 1224.07,4 -4,4"/>
<!-- publishers -->
<g id="node1" class="node">
<title>publishers</title>
<ellipse fill="none" stroke="black" cx="501.99" cy="-252.68" rx="52.01" ry="29.42"/>
<text text-anchor="middle" x="501.99" y="-256.88" font-family="Times,serif" font-size="14.00">publishers</text>
<text text-anchor="middle" x="501.99" y="-240.08" font-family="Times,serif" font-size="14.00">(id, name)</text>
</g>
<!-- books -->
<g id="node4" class="node">
<title>books</title>
<ellipse fill="none" stroke="black" cx="553.99" cy="-141.05" rx="431.93" ry="29.42"/>
<text text-anchor="middle" x="553.99" y="-145.25" font-family="Times,serif" font-size="14.00">books</text>
<text text-anchor="middle" x="553.99" y="-128.45" font-family="Times,serif" font-size="14.00">(id, title, edition, isbn, language, publication_year, summary, cover_image_url, publisher_id, category_id)</text>
</g>
<!-- publishers&#45;&gt;books -->
<g id="edge1" class="edge">
<title>publishers-&gt;books</title>
<path fill="none" stroke="black" d="M515.12,-224.01C521.31,-210.95 528.82,-195.13 535.57,-180.88"/>
<polygon fill="black" stroke="black" points="538.56,-182.75 539.68,-172.22 532.24,-179.75 538.56,-182.75"/>
<text text-anchor="middle" x="541.61" y="-192.66" font-family="Times,serif" font-size="14.00">1:N</text>
</g>
<!-- categories -->
<g id="node2" class="node">
<title>categories</title>
<ellipse fill="none" stroke="black" cx="665.99" cy="-252.68" rx="94.33" ry="29.42"/>
<text text-anchor="middle" x="665.99" y="-256.88" font-family="Times,serif" font-size="14.00">categories</text>
<text text-anchor="middle" x="665.99" y="-240.08" font-family="Times,serif" font-size="14.00">(id, name, parent_id)</text>
</g>
<!-- categories&#45;&gt;categories -->
<g id="edge3" class="edge">
<title>categories-&gt;categories</title>
<path fill="none" stroke="black" d="M755.89,-262.17C769.27,-260.69 778.32,-257.53 778.32,-252.68 778.32,-249.34 774.04,-246.81 767.02,-245.06"/>
<polygon fill="black" stroke="black" points="767.83,-241.65 757.38,-243.44 766.66,-248.55 767.83,-241.65"/>
<text text-anchor="middle" x="836.05" y="-248.48" font-family="Times,serif" font-size="14.00">parent-child (0..1:N)</text>
</g>
<!-- categories&#45;&gt;books -->
<g id="edge2" class="edge">
<title>categories-&gt;books</title>
<path fill="none" stroke="black" d="M638.02,-224.3C623.92,-210.49 606.62,-193.56 591.39,-178.65"/>
<polygon fill="black" stroke="black" points="593.85,-176.16 584.25,-171.67 588.95,-181.16 593.85,-176.16"/>
<text text-anchor="middle" x="627.2" y="-192.66" font-family="Times,serif" font-size="14.00">1:N</text>
</g>
<!-- authors -->
<g id="node3" class="node">
<title>authors</title>
<ellipse fill="none" stroke="black" cx="51.99" cy="-141.05" rx="51.99" ry="29.42"/>
<text text-anchor="middle" x="51.99" y="-145.25" font-family="Times,serif" font-size="14.00">authors</text>
<text text-anchor="middle" x="51.99" y="-128.45" font-family="Times,serif" font-size="14.00">(id, name)</text>
</g>
<!-- book_authors -->
<g id="node5" class="node">
<title>book_authors</title>
<ellipse fill="none" stroke="black" cx="302.99" cy="-29.42" rx="93.25" ry="29.42"/>
<text text-anchor="middle" x="302.99" y="-33.62" font-family="Times,serif" font-size="14.00">book_authors</text>
<text text-anchor="middle" x="302.99" y="-16.82" font-family="Times,serif" font-size="14.00">(book_id, author_id)</text>
</g>
<!-- authors&#45;&gt;book_authors -->
<g id="edge5" class="edge">
<title>authors-&gt;book_authors</title>
<path fill="none" stroke="black" d="M91.29,-121.52C98.49,-118.19 105.95,-114.78 112.99,-111.63 154.14,-93.26 200.64,-73.37 237.35,-57.87"/>
<polygon fill="black" stroke="black" points="238.67,-61.11 246.52,-54 235.95,-54.66 238.67,-61.11"/>
<text text-anchor="middle" x="201.52" y="-81.03" font-family="Times,serif" font-size="14.00">1:N</text>
</g>
<!-- books&#45;&gt;book_authors -->
<g id="edge4" class="edge">
<title>books-&gt;book_authors</title>
<path fill="none" stroke="black" d="M488.7,-111.53C451.13,-95.12 404.12,-74.58 366.8,-58.28"/>
<polygon fill="black" stroke="black" points="368.5,-55.21 357.93,-54.41 365.69,-61.62 368.5,-55.21"/>
<text text-anchor="middle" x="454.02" y="-81.03" font-family="Times,serif" font-size="14.00">1:N</text>
</g>
<!-- borrows -->
<g id="node8" class="node">
<title>borrows</title>
<ellipse fill="none" stroke="black" cx="843.99" cy="-29.42" rx="286.22" ry="29.42"/>
<text text-anchor="middle" x="843.99" y="-33.62" font-family="Times,serif" font-size="14.00">borrows</text>
<text text-anchor="middle" x="843.99" y="-16.82" font-family="Times,serif" font-size="14.00">(id, book_id, member_id, borrow_date, return_date, due_date, status)</text>
</g>
<!-- books&#45;&gt;borrows -->
<g id="edge7" class="edge">
<title>books-&gt;borrows</title>
<path fill="none" stroke="black" d="M629.05,-111.67C669.04,-96.56 718.36,-77.91 759.66,-62.3"/>
<polygon fill="black" stroke="black" points="760.72,-65.64 768.84,-58.83 758.25,-59.09 760.72,-65.64"/>
<text text-anchor="middle" x="726.86" y="-81.03" font-family="Times,serif" font-size="14.00">1:N</text>
</g>
<!-- members -->
<g id="node6" class="node">
<title>members</title>
<ellipse fill="none" stroke="black" cx="1111.99" cy="-141.05" rx="108.08" ry="29.42"/>
<text text-anchor="middle" x="1111.99" y="-145.25" font-family="Times,serif" font-size="14.00">members</text>
<text text-anchor="middle" x="1111.99" y="-128.45" font-family="Times,serif" font-size="14.00">(id, name, email, phone)</text>
</g>
<!-- members&#45;&gt;borrows -->
<g id="edge6" class="edge">
<title>members-&gt;borrows</title>
<path fill="none" stroke="black" d="M1053.18,-115.99C1014.83,-100.3 964.33,-79.64 922.55,-62.55"/>
<polygon fill="black" stroke="black" points="924.12,-59.41 913.53,-58.86 921.47,-65.89 924.12,-59.41"/>
<text text-anchor="middle" x="1004.54" y="-81.03" font-family="Times,serif" font-size="14.00">1:N</text>
</g>
<!-- system_users -->
<g id="node7" class="node">
<title>system_users</title>
<ellipse fill="none" stroke="black" cx="1042.99" cy="-252.68" rx="131.17" ry="29.42"/>
<text text-anchor="middle" x="1042.99" y="-256.88" font-family="Times,serif" font-size="14.00">system_users</text>
<text text-anchor="middle" x="1042.99" y="-240.08" font-family="Times,serif" font-size="14.00">(id, username, password, role)</text>
</g>
</g>
</svg>